<svg data-v-0dd9719b="" version="1.0" xmlns="http://www.w3.org/2000/svg" xmlns:xlink="http://www.w3.org/1999/xlink" width="100%" height="100%" viewBox="0 0 340.000000 250.000000" preserveAspectRatio="xMidYMid meet" color-interpolation-filters="sRGB" style="margin: auto;"> <rect data-v-0dd9719b="" x="0" y="0" width="100%" height="100%" fill="#ffffff" fill-opacity="1" class="background"></rect> <rect data-v-0dd9719b="" x="0" y="0" width="100%" height="100%" fill="url(#watermark)" fill-opacity="1" class="watermarklayer"></rect> <g data-v-0dd9719b="" fill="#bb2e2e" class="icon-text-wrapper icon-svg-group iconsvg" transform="translate(47.56999969482422,90.36196517944336)"><g class="iconsvg-imagesvg" transform="translate(0,0)"><g><rect fill="#bb2e2e" fill-opacity="0" stroke-width="2" x="0" y="0" width="60" height="69.27606511950121" class="image-rect"></rect> <svg filter="url(#colors6481165551)" x="0" y="0" width="60" height="69.27606511950121" filtersec="colorsf1551944969" class="image-svg-svg primary" style="overflow: visible;"><svg xmlns="http://www.w3.org/2000/svg" viewBox="0 0 86.61000061035156 100"><path d="M79.24 70.86L36.06 95.78l7.23 4.22 43.18-25zM86.61 58L43.43 33.12v8.34l43.18 24.93zm0-33.06v8.35L65 20.83l-7.21-4.16-14.45-8.32V0l14.41 8.32L65 12.48l14.31 8.26 7.3 4.26zm0 16.53v8.35L43.43 24.93v-8.35L65 29l13 7.53zM7.23 70.65V20.8L0 25v49.83l7.23-4.18zm28.63-16.53l-7.23 4.18v-50l7.23-4.17v50zm-14.31 8.27l-7.24 4.17V16.71l7.24-4.18v49.86zm29.06-8.07l7.23 4.18L36.19 71 29 75.16l-14.4 8.32-7.26-4.17L21.75 71 29 66.82l14.31-8.26 7.34-4.24zm14.31 8.27l7.24 4.18L29 91.69l-7.23-4.17 21.5-12.43 13-7.53 8.61-5z" fill="#333"></path></svg></svg> <defs><filter id="colors6481165551"><feColorMatrix type="matrix" values="0 0 0 0 0.1484375  0 0 0 0 0.0703125  0 0 0 0 0.35546875  0 0 0 1 0" class="icon-fecolormatrix"></feColorMatrix></filter> <filter id="colorsf1551944969"><feColorMatrix type="matrix" values="0 0 0 0 0.99609375  0 0 0 0 0.99609375  0 0 0 0 0.99609375  0 0 0 1 0" class="icon-fecolormatrix"></feColorMatrix></filter> <filter id="colorsb5053879325"><feColorMatrix type="matrix" values="0 0 0 0 0  0 0 0 0 0  0 0 0 0 0  0 0 0 1 0" class="icon-fecolormatrix"></feColorMatrix></filter></defs></g></g> <g transform="translate(67,22.27803325653076)"><g data-gra="path-name" fill-rule="" class="tp-name iconsvg-namesvg"><g transform="scale(1)"><g><path d="M27.73-21.96L27.73-21.96 27.73-21.34Q26.74-21.31 26.24-21.11 25.75-20.91 25.57-20.36 25.4-19.82 25.4-18.67L25.4-18.67 25.4-3.29Q25.4-2.17 25.57-1.61 25.75-1.05 26.24-0.87 26.74-0.68 27.73-0.62L27.73-0.62 27.73 0Q26.86-0.06 25.54-0.08 24.23-0.09 22.86-0.09L22.86-0.09Q21.37-0.09 20.07-0.08 18.77-0.06 17.96 0L17.96 0 17.96-0.62Q19.01-0.68 19.56-0.87 20.1-1.05 20.29-1.61 20.47-2.17 20.47-3.29L20.47-3.29 20.47-20.07 20.69-20.07 13 0.03 12.5 0.03 4.13-19.94 4.13-5.09Q4.13-3.38 4.31-2.47 4.5-1.55 5.13-1.16 5.77-0.78 7.13-0.62L7.13-0.62 7.13 0Q6.54-0.06 5.58-0.08 4.62-0.09 3.78-0.09L3.78-0.09Q3.07-0.09 2.33-0.08 1.58-0.06 1.09 0L1.09 0 1.09-0.62Q2.08-0.78 2.57-1.15 3.07-1.52 3.24-2.37 3.41-3.23 3.41-4.71L3.41-4.71 3.41-18.67Q3.41-19.82 3.24-20.36 3.07-20.91 2.56-21.11 2.05-21.31 1.09-21.34L1.09-21.34 1.09-21.96Q1.58-21.93 2.33-21.9 3.07-21.87 3.78-21.87L3.78-21.87Q5.12-21.87 6.41-21.9 7.69-21.93 8.69-21.96L8.69-21.96 15.2-6.23 14.42-5.52 20.66-21.87Q21.19-21.87 21.74-21.87 22.3-21.87 22.86-21.87L22.86-21.87Q24.23-21.87 25.54-21.9 26.86-21.93 27.73-21.96ZM36.91-16.47L36.91-16.47Q39.64-16.47 41.19-14.86 42.74-13.24 42.74-9.58L42.74-9.58 32.54-9.58 32.48-10.17 38.84-10.17Q38.87-11.69 38.65-12.98 38.43-14.27 37.97-15.04 37.5-15.82 36.73-15.82L36.73-15.82Q35.64-15.82 34.88-14.45 34.12-13.09 33.97-9.93L33.97-9.93 34.06-9.74Q34.03-9.37 34.01-8.96 34-8.56 34-8.13L34-8.13Q34-5.99 34.6-4.65 35.21-3.32 36.14-2.71 37.07-2.11 38.03-2.11L38.03-2.11Q38.96-2.11 40.06-2.57 41.16-3.04 42.12-4.59L42.12-4.59 42.68-4.4Q42.31-3.23 41.5-2.11 40.7-0.99 39.46-0.28 38.21 0.43 36.48 0.43L36.48 0.43Q34.37 0.43 32.76-0.47 31.14-1.36 30.23-3.19 29.31-5.02 29.31-7.85L29.31-7.85Q29.31-10.73 30.29-12.66 31.27-14.58 32.99-15.52 34.71-16.47 36.91-16.47ZM59.8-24.29L59.8-24.29 59.8-3.41Q59.8-2.02 60.24-1.35 60.67-0.68 61.79-0.68L61.79-0.68 61.79-0.03Q60.83-0.12 59.87-0.12L59.87-0.12Q58.56-0.12 57.43-0.03 56.3 0.06 55.34 0.31L55.34 0.31 55.34-20.57Q55.34-21.96 54.92-22.63 54.5-23.29 53.35-23.29L53.35-23.29 53.35-23.95Q54.34-23.85 55.27-23.85L55.27-23.85Q56.55-23.85 57.69-23.96 58.84-24.07 59.8-24.29ZM51.89-16.47L51.89-16.47Q53.26-16.47 54.3-16.02 55.34-15.57 55.93-14.52L55.93-14.52 55.55-14.18Q55.15-14.92 54.48-15.25 53.82-15.57 53.07-15.57L53.07-15.57Q51.49-15.57 50.56-13.73 49.63-11.88 49.66-8.03L49.66-8.03Q49.66-5.4 50.02-3.83 50.37-2.26 51.04-1.58 51.71-0.9 52.58-0.9L52.58-0.9Q53.63-0.9 54.47-1.74 55.31-2.57 55.37-4L55.37-4 55.52-2.92Q55.06-1.27 54.02-0.42 52.98 0.43 51.3 0.43L51.3 0.43Q49.47 0.43 48.03-0.47 46.59-1.36 45.78-3.24 44.98-5.12 44.98-8.1L44.98-8.1Q44.98-10.92 45.88-12.76 46.78-14.61 48.34-15.54 49.91-16.47 51.89-16.47ZM67.12-24.04L67.12-24.04Q68.43-24.04 69.19-23.4 69.95-22.77 69.95-21.65L69.95-21.65Q69.95-20.53 69.19-19.9 68.43-19.26 67.12-19.26L67.12-19.26Q65.82-19.26 65.06-19.9 64.3-20.53 64.3-21.65L64.3-21.65Q64.3-22.77 65.06-23.4 65.82-24.04 67.12-24.04ZM69.54-16.38L69.54-16.38 69.54-2.88Q69.54-1.58 69.99-1.12 70.44-0.65 71.53-0.65L71.53-0.65 71.53 0Q70.97-0.03 69.79-0.08 68.61-0.12 67.4-0.12L67.4-0.12Q66.19-0.12 64.95-0.08 63.71-0.03 63.09 0L63.09 0 63.09-0.65Q64.18-0.65 64.63-1.12 65.08-1.58 65.08-2.88L65.08-2.88 65.08-12.66Q65.08-14.05 64.66-14.72 64.24-15.39 63.09-15.39L63.09-15.39 63.09-16.04Q64.08-15.94 65.01-15.94L65.01-15.94Q66.32-15.94 67.45-16.05 68.58-16.16 69.54-16.38ZM76.96 0.22L76.96 0.22Q74.88 0.22 73.95-0.87 73.02-1.95 73.02-3.51L73.02-3.51Q73.02-4.84 73.62-5.68 74.23-6.51 75.19-7.06 76.15-7.6 77.22-7.96 78.29-8.31 79.27-8.67 80.24-9.03 80.85-9.49 81.45-9.96 81.45-10.67L81.45-10.67 81.45-13.09Q81.45-13.9 81.19-14.53 80.93-15.17 80.38-15.51 79.84-15.85 78.97-15.85L78.97-15.85Q78.35-15.85 77.73-15.68 77.11-15.51 76.71-15.11L76.71-15.11Q77.58-14.8 78.06-14.16 78.54-13.52 78.54-12.72L78.54-12.72Q78.54-11.66 77.81-11.04 77.08-10.42 76.09-10.42L76.09-10.42Q74.97-10.42 74.4-11.12 73.82-11.82 73.82-12.81L73.82-12.81Q73.82-13.71 74.27-14.3 74.72-14.89 75.53-15.42L75.53-15.42Q76.4-15.91 77.62-16.19 78.85-16.47 80.28-16.47L80.28-16.47Q81.7-16.47 82.85-16.18 84-15.88 84.77-15.11L84.77-15.11Q85.49-14.39 85.7-13.35 85.92-12.31 85.92-10.73L85.92-10.73 85.92-2.3Q85.92-1.55 86.08-1.24 86.23-0.93 86.6-0.93L86.6-0.93Q86.91-0.93 87.19-1.09 87.47-1.24 87.72-1.46L87.72-1.46 88.03-0.93Q87.38-0.37 86.53-0.08 85.67 0.22 84.62 0.22L84.62 0.22Q82.76 0.22 82.15-0.54 81.55-1.3 81.52-2.3L81.52-2.3Q80.74-1.02 79.61-0.4 78.48 0.22 76.96 0.22ZM79.35-1.77L79.35-1.77Q79.93-1.77 80.45-2.05 80.96-2.33 81.45-3.04L81.45-3.04 81.45-9.4Q81.08-8.78 80.42-8.36 79.75-7.94 79.05-7.46 78.35-6.98 77.89-6.23 77.42-5.49 77.42-4.25L77.42-4.25Q77.42-2.92 77.98-2.34 78.54-1.77 79.35-1.77ZM114.46-21.96L114.46-21.96Q114.33-20.38 114.29-18.92 114.24-17.46 114.24-16.69L114.24-16.69Q114.24-16.01 114.27-15.39 114.3-14.76 114.33-14.33L114.33-14.33 113.62-14.33Q113.12-16.94 112.36-18.46 111.6-19.98 110.55-20.61 109.5-21.25 108.07-21.25L108.07-21.25 107.35-21.25 107.35-3.54Q107.35-2.3 107.62-1.67 107.88-1.05 108.6-0.85 109.31-0.65 110.67-0.62L110.67-0.62 110.67 0Q109.71-0.03 108.11-0.06 106.52-0.09 104.78-0.09L104.78-0.09Q103.07-0.09 101.55-0.06 100.03-0.03 99.1 0L99.1 0 99.1-0.62Q100.5-0.65 101.21-0.85 101.93-1.05 102.17-1.67 102.42-2.3 102.42-3.54L102.42-3.54 102.42-21.25 101.74-21.25Q100.31-21.25 99.26-20.61 98.2-19.98 97.46-18.47 96.72-16.97 96.16-14.33L96.16-14.33 95.44-14.33Q95.51-14.76 95.52-15.39 95.54-16.01 95.54-16.69L95.54-16.69Q95.54-17.46 95.49-18.92 95.44-20.38 95.32-21.96L95.32-21.96Q96.75-21.93 98.44-21.9 100.13-21.87 101.83-21.87 103.54-21.87 104.9-21.87L104.9-21.87Q106.3-21.87 107.99-21.87 109.68-21.87 111.39-21.9 113.09-21.93 114.46-21.96ZM126.68-16.47L126.68-16.47Q127.67-16.47 128.29-16.05 128.91-15.63 129.21-14.98 129.5-14.33 129.5-13.62L129.5-13.62Q129.5-12.47 128.84-11.74 128.17-11.01 127.08-11.01L127.08-11.01Q126-11.01 125.39-11.55 124.79-12.1 124.79-13L124.79-13Q124.79-13.87 125.17-14.44 125.56-15.01 126.15-15.42L126.15-15.42Q125.72-15.54 125.28-15.39L125.28-15.39Q124.48-15.26 123.84-14.63 123.21-13.99 122.83-13.12 122.46-12.25 122.46-11.41L122.46-11.41 122.46-3.19Q122.46-1.71 123.19-1.18 123.92-0.65 125.38-0.65L125.38-0.65 125.38 0Q124.66-0.03 123.3-0.08 121.93-0.12 120.44-0.12L120.44-0.12Q119.2-0.12 117.93-0.08 116.66-0.03 116.01 0L116.01 0 116.01-0.65Q117.09-0.65 117.54-1.12 117.99-1.58 117.99-2.88L117.99-2.88 117.99-12.66Q117.99-14.05 117.58-14.72 117.16-15.39 116.01-15.39L116.01-15.39 116.01-16.04Q117-15.94 117.93-15.94L117.93-15.94Q119.23-15.94 120.37-16.05 121.5-16.16 122.46-16.38L122.46-16.38 122.46-13.49Q122.83-14.33 123.45-15.01 124.07-15.7 124.88-16.08 125.69-16.47 126.68-16.47ZM134.59 0.22L134.59 0.22Q132.51 0.22 131.58-0.87 130.65-1.95 130.65-3.51L130.65-3.51Q130.65-4.84 131.25-5.68 131.86-6.51 132.82-7.06 133.78-7.6 134.85-7.96 135.92-8.31 136.9-8.67 137.88-9.03 138.48-9.49 139.09-9.96 139.09-10.67L139.09-10.67 139.09-13.09Q139.09-13.9 138.82-14.53 138.56-15.17 138.02-15.51 137.47-15.85 136.61-15.85L136.61-15.85Q135.98-15.85 135.36-15.68 134.74-15.51 134.34-15.11L134.34-15.11Q135.21-14.8 135.69-14.16 136.17-13.52 136.17-12.72L136.17-12.72Q136.17-11.66 135.44-11.04 134.71-10.42 133.72-10.42L133.72-10.42Q132.6-10.42 132.03-11.12 131.46-11.82 131.46-12.81L131.46-12.81Q131.46-13.71 131.91-14.3 132.36-14.89 133.16-15.42L133.16-15.42Q134.03-15.91 135.26-16.19 136.48-16.47 137.91-16.47L137.91-16.47Q139.33-16.47 140.48-16.18 141.63-15.88 142.41-15.11L142.41-15.11Q143.12-14.39 143.34-13.35 143.55-12.31 143.55-10.73L143.55-10.73 143.55-2.3Q143.55-1.55 143.71-1.24 143.86-0.93 144.24-0.93L144.24-0.93Q144.55-0.93 144.83-1.09 145.1-1.24 145.35-1.46L145.35-1.46 145.66-0.93Q145.01-0.37 144.16-0.08 143.31 0.22 142.25 0.22L142.25 0.22Q140.39 0.22 139.78-0.54 139.18-1.3 139.15-2.3L139.15-2.3Q138.37-1.02 137.24-0.4 136.11 0.22 134.59 0.22ZM136.98-1.77L136.98-1.77Q137.57-1.77 138.08-2.05 138.59-2.33 139.09-3.04L139.09-3.04 139.09-9.4Q138.71-8.78 138.05-8.36 137.38-7.94 136.68-7.46 135.98-6.98 135.52-6.23 135.05-5.49 135.05-4.25L135.05-4.25Q135.05-2.92 135.61-2.34 136.17-1.77 136.98-1.77ZM161.82-24.29L161.82-24.29 161.82-3.41Q161.82-2.02 162.26-1.35 162.69-0.68 163.81-0.68L163.81-0.68 163.81-0.03Q162.85-0.12 161.89-0.12L161.89-0.12Q160.58-0.12 159.45-0.03 158.32 0.06 157.36 0.31L157.36 0.31 157.36-20.57Q157.36-21.96 156.94-22.63 156.52-23.29 155.37-23.29L155.37-23.29 155.37-23.95Q156.36-23.85 157.29-23.85L157.29-23.85Q158.57-23.85 159.71-23.96 160.86-24.07 161.82-24.29ZM153.91-16.47L153.91-16.47Q155.28-16.47 156.32-16.02 157.36-15.57 157.95-14.52L157.95-14.52 157.57-14.18Q157.17-14.92 156.5-15.25 155.84-15.57 155.09-15.57L155.09-15.57Q153.51-15.57 152.58-13.73 151.65-11.88 151.68-8.03L151.68-8.03Q151.68-5.4 152.04-3.83 152.39-2.26 153.06-1.58 153.73-0.9 154.6-0.9L154.6-0.9Q155.65-0.9 156.49-1.74 157.33-2.57 157.39-4L157.39-4 157.54-2.92Q157.08-1.27 156.04-0.42 155 0.43 153.32 0.43L153.32 0.43Q151.49 0.43 150.05-0.47 148.61-1.36 147.8-3.24 147-5.12 147-8.1L147-8.1Q147-10.92 147.9-12.76 148.8-14.61 150.36-15.54 151.93-16.47 153.91-16.47ZM173.11-16.47L173.11-16.47Q175.84-16.47 177.39-14.86 178.95-13.24 178.95-9.58L178.95-9.58 168.74-9.58 168.68-10.17 175.04-10.17Q175.07-11.69 174.85-12.98 174.63-14.27 174.17-15.04 173.7-15.82 172.93-15.82L172.93-15.82Q171.84-15.82 171.08-14.45 170.32-13.09 170.17-9.93L170.17-9.93 170.26-9.74Q170.23-9.37 170.21-8.96 170.2-8.56 170.2-8.13L170.2-8.13Q170.2-5.99 170.8-4.65 171.41-3.32 172.34-2.71 173.27-2.11 174.23-2.11L174.23-2.11Q175.16-2.11 176.26-2.57 177.36-3.04 178.33-4.59L178.33-4.59 178.88-4.4Q178.51-3.23 177.7-2.11 176.9-0.99 175.66-0.28 174.42 0.43 172.68 0.43L172.68 0.43Q170.57 0.43 168.96-0.47 167.34-1.36 166.43-3.19 165.51-5.02 165.51-7.85L165.51-7.85Q165.51-10.73 166.49-12.66 167.47-14.58 169.19-15.52 170.91-16.47 173.11-16.47Z" transform="translate(-1.090000033378601, 24.290000915527344)"></path></g> <!----> <!----> <!----> <!----> <!----> <!----> <!----></g></g> <!----></g></g><defs v-gra="od"></defs></svg>